<svg aria-hidden="true" style="position: absolute; width: 0; height: 0; overflow: hidden;" version="1.1"
        xmlns="http://www.w3.org/2000/svg" xmlns:xlink="http://www.w3.org/1999/xlink">
        <defs>
                <symbol id="logo1" viewBox="0 0 240 240">
                        <text style="stroke:none; font-family: Helvetica; font-size: 175px; font-weight: 700; white-space: pre;"
                                x="72.817" y="179.672">2</text>
                        <path d="M 231.558 117.652 C 230.262 61.554 177.226 8 120.817 8 C 64.409 8 9.295 61.841 8 117.939"
                                style="fill: none; stroke-width: 16px;"></path>
                        <path d="M 232 122.147 C 230.705 178.245 177.668 231.8 121.26 231.8 C 64.851 231.8 9.737 177.958 8.442 121.861"
                                style="fill: none; stroke-width: 16px;"></path>
                </symbol>
                <symbol id="upgrade" viewBox="0 0 32 32">
                        <path
                                d="M21,24H11a2,2,0,0,0-2,2v2a2,2,0,0,0,2,2H21a2,2,0,0,0,2-2V26A2,2,0,0,0,21,24Zm0,4H11V26H21Z">
                        </path>
                        <path
                                d="M28.707,14.293l-12-12a.9994.9994,0,0,0-1.414,0l-12,12A1,1,0,0,0,4,16H9v4a2.0023,2.0023,0,0,0,2,2H21a2.0027,2.0027,0,0,0,2-2V16h5a1,1,0,0,0,.707-1.707ZM21,14v6H11V14H6.4141L16,4.4141,25.5859,14Z">
                        </path>
                </symbol>
                <symbol id="home" viewBox="0 0 24 24" fill="none">
                        <path stroke-linecap="round" stroke-linejoin="round" stroke-width="2"
                                d="M3 12l2-2m0 0l7-7 7 7M5 10v10a1 1 0 001 1h3m10-11l2 2m-2-2v10a1 1 0 01-1 1h-3m-6 0a1 1 0 001-1v-4a1 1 0 011-1h2a1 1 0 011 1v4a1 1 0 001 1m-6 0h6" />
                </symbol>
                <symbol id="menu" viewBox="0 0 24 24" fill="none">
                        <path stroke-linecap="round" stroke-linejoin="round" stroke-width="2"
                                d="M4 6h16M4 12h16M4 18h16" />
                </symbol>
                <symbol id="watch" style="stroke:none" viewBox="0 0 19.949 19.97">
                        <path
                                d="M10.95 0v2.02a8 8 0 0 1 0 15.88v2a10 10 0 0 0 0-19.9m-2 .03a9.827 9.827 0 0 0-5.33 2.2l1.43 1.48a8 8 0 0 1 3.9-1.68v-2M2.21 3.64A9.885 9.885 0 0 0 0 8.97h2a8.017 8.017 0 0 1 1.64-3.9L2.21 3.64m-2.2 7.33a10.039 10.039 0 0 0 2.21 5.33l1.42-1.43a8 8 0 0 1-1.63-3.9h-2m5.04 5.37-1.43 1.37a9.994 9.994 0 0 0 5.33 2.26v-2a8 8 0 0 1-3.9-1.63m5.4-11.37v5.25l4.5 2.67-.75 1.23-5.25-3.15v-6Z">
                        </path>
                </symbol>
                <symbol id="level" style="stroke:none" viewBox="0 0 30.814 32">
                        <path d="m22.272 29.355-.764-1.99 1.99-.763.763 1.99z"></path>
                        <path
                                d="M15.407 0-.004 26.075 15.407 32l4.875-1.874-.766-1.99-3.044 1.172v-6.24l8.224-3.162 3 5.084-2.217.852.766 1.989 4.566-1.757Zm-1.065 29.308L3.115 24.99l3-5.084 8.222 3.162Zm0-8.523-7.123-2.74 2.49-4.213 4.633 1.779Zm0-7.457-3.534-1.358 3.534-5.979Zm2.13-7.338 3.534 5.98-3.534 1.358Zm0 14.793v-5.172l4.633-1.779 2.49 4.213Z">
                        </path>
                </symbol>
                <symbol id="pve" style="stroke:none" viewBox="0 0 27 30">
                        <path
                                d="m12.127-.001-12.124 7v14l12.124 7 12.124-7v-14Zm9.324 19.383-9.324 5.384-9.324-5.384V8.615l9.324-5.383 9.324 5.383ZM12.127 4.848 4.203 9.423v9.15l7.924 4.575 7.924-4.575v-9.15Zm6.524 12.917-6.524 3.767-6.524-3.767v-7.534l6.524-3.767 6.524 3.767Z">
                        </path>
                </symbol>
                <symbol id="dark-zone" style="stroke:none" viewBox="0 0 30 28">
                        <path
                                d="M28 19.025c-.019.15-.037.3-.058.451a.337.337 0 0 1-.059.152c-.025-.229-.048-.459-.075-.688a6.241 6.241 0 0 0-3.165-4.78 6.17 6.17 0 0 0-3.671-.9 5.63 5.63 0 0 0-4.018 1.96c-.047.054-.093.109-.143.16-.216.22-.132.231-.443.069-.16-.084-.309-.187-.469-.273a.178.178 0 0 1-.1-.181 4.257 4.257 0 0 0-.049-.879 1.745 1.745 0 0 0-.993-1.168.412.412 0 0 1-.292-.476 6.118 6.118 0 0 0 .007-.642.252.252 0 0 1 .016-.054 3.169 3.169 0 0 0 1.149-.219 5.766 5.766 0 0 0 3.489-3.208 6.519 6.519 0 0 0-1.162-7.159 6.12 6.12 0 0 0-1.38-1.077.535.535 0 0 1-.14-.109 7.476 7.476 0 0 1 4.6 4.3 7.558 7.558 0 0 1-.191 6.322c.254.037.488.067.722.106a7.5 7.5 0 0 1 4.748 2.763 7.753 7.753 0 0 1 1.581 3.424c.043.214.046.435.069.652.008.075.018.149.027.223Zm-28-.086.089.728a5 5 0 0 0 .083-.553 6.491 6.491 0 0 1 .53-2.048 6.624 6.624 0 0 1 5.956-3.815 5.66 5.66 0 0 1 4.128 1.684c.175.174.337.363.5.549a.134.134 0 0 0 .195.038c.2-.115.406-.228.613-.335a.185.185 0 0 0 .107-.193c0-.219.014-.438.021-.656a1.344 1.344 0 0 1 .268-.755 1.937 1.937 0 0 1 .895-.705.211.211 0 0 0 .154-.255c-.019-.194-.017-.39-.026-.585-.012-.281.038-.227-.232-.267a5.215 5.215 0 0 1-2.917-1.387 6.287 6.287 0 0 1-1.885-6.261A6 6 0 0 1 11.468.081c.044-.025.086-.055.129-.082a7.285 7.285 0 0 0-3.947 3 7.669 7.669 0 0 0-.513 7.639l-.07.012c-.436.07-.881.107-1.307.217a7.6 7.6 0 0 0-4.018 2.547 7.453 7.453 0 0 0-1.659 3.658c-.04.248-.056.5-.082.749Zm6.843 6.931a7.688 7.688 0 0 0 7.171-3.35 7.454 7.454 0 0 0 2.318 2.225 7.6 7.6 0 0 0 3 1.1 7.446 7.446 0 0 0 3.206-.242 7.148 7.148 0 0 0 2.794-1.557l-.1.054a5.953 5.953 0 0 1-3.89.755 6.488 6.488 0 0 1-4.4-2.575 5.7 5.7 0 0 1-1.112-4.791c.071-.338.194-.665.3-1 .027-.085.02-.138-.066-.186-.245-.136-.485-.282-.725-.423-.133.1-.255.2-.389.278a1.861 1.861 0 0 1-2.155-.191c-.084-.072-.144-.094-.244-.026-.149.1-.311.184-.466.277-.244.145-.245.147-.155.423a6.254 6.254 0 0 1 .352 1.525 5.877 5.877 0 0 1-1.038 3.866 6.482 6.482 0 0 1-4.635 2.823 5.9 5.9 0 0 1-3.559-.605c-.137-.071-.27-.151-.431-.242a7.3 7.3 0 0 0 4.224 1.862Z">
                        </path>
                </symbol>
                <symbol id="graph" style="stroke:none" viewBox="0 0 256 256">
                        <g style="stroke: none"
                                transform="translate(1.4065934065934016 1.4065934065934016) scale(2.81 2.81)">
                                <path
                                        d="M 87.994 0 H 69.342 c -1.787 0 -2.682 2.16 -1.418 3.424 l 5.795 5.795 l -33.82 33.82 L 28.056 31.196 l -3.174 -3.174 c -1.074 -1.074 -2.815 -1.074 -3.889 0 L 0.805 48.209 c -1.074 1.074 -1.074 2.815 0 3.889 l 3.174 3.174 c 1.074 1.074 2.815 1.074 3.889 0 l 15.069 -15.069 l 14.994 14.994 c 1.074 1.074 2.815 1.074 3.889 0 l 1.614 -1.614 c 0.083 -0.066 0.17 -0.125 0.247 -0.202 l 37.1 -37.1 l 5.795 5.795 C 87.84 23.34 90 22.445 90 20.658 V 2.006 C 90 0.898 89.102 0 87.994 0 z" />
                                <path
                                        d="M 65.626 37.8 v 49.45 c 0 1.519 1.231 2.75 2.75 2.75 h 8.782 c 1.519 0 2.75 -1.231 2.75 -2.75 V 23.518 L 65.626 37.8 z" />
                                <path
                                        d="M 47.115 56.312 V 87.25 c 0 1.519 1.231 2.75 2.75 2.75 h 8.782 c 1.519 0 2.75 -1.231 2.75 -2.75 V 42.03 L 47.115 56.312 z" />
                                <path
                                        d="M 39.876 60.503 c -1.937 0 -3.757 -0.754 -5.127 -2.124 l -6.146 -6.145 V 87.25 c 0 1.519 1.231 2.75 2.75 2.75 h 8.782 c 1.519 0 2.75 -1.231 2.75 -2.75 V 59.844 C 41.952 60.271 40.933 60.503 39.876 60.503 z" />
                                <path
                                        d="M 22.937 46.567 L 11.051 58.453 c -0.298 0.298 -0.621 0.562 -0.959 0.8 V 87.25 c 0 1.519 1.231 2.75 2.75 2.75 h 8.782 c 1.519 0 2.75 -1.231 2.75 -2.75 V 48.004 L 22.937 46.567 z" />
                        </g>
                </symbol>
        </defs>
</svg>